<?xml version="1.0" encoding="UTF-8" standalone="no"?>
<svg
   width="44"
   height="44"
   viewBox="0 0 44 44"
   fill="none"
   version="1.1"
   id="svg5"
   sodipodiDocname="ios_dark_sq_na.svg"
   inkscapeVersion="1.3 (0e150ed, 2023-07-21)"
   xmlnsInkscape="http://www.inkscape.org/namespaces/inkscape"
   xmlnsSodipodi="http://sodipodi.sourceforge.net/DTD/sodipodi-0.dtd"
   xmlns="http://www.w3.org/2000/svg"
   xmlnsSvg="http://www.w3.org/2000/svg">
  <sodipodiNamedview
     id="namedview5"
     pagecolor="#505050"
     bordercolor="#eeeeee"
     borderopacity="1"
     inkscapeShowpageshadow="0"
     inkscapePageopacity="0"
     inkscapePagecheckerboard="0"
     inkscapeDeskcolor="#505050"
     inkscapeZoom="7.6136803"
     inkscapeCx="12.083512"
     inkscapeCy="28.895356"
     inkscapeWindowWidth="1192"
     inkscapeWindowHeight="785"
     inkscapeWindowX="0"
     inkscapeWindowY="38"
     inkscapeWindowMaximized="0"
     inkscapeCurrentLayer="svg5" />
  <g
     clip-path="url(#clip0_710_6226)"
     id="g4"
     transform="matrix(2.1466101,0,0,2.1466101,-24.7961,-25.225422)">
    <path
       d="m 31.6,22.2273 c 0,-0.7091 -0.0636,-1.3909 -0.1818,-2.0455 H 22 V 24.05 h 5.3818 c -0.2318,1.25 -0.9363,2.3091 -1.9954,3.0182 v 2.5091 h 3.2318 C 30.5091,27.8364 31.6,25.2727 31.6,22.2273 Z"
       fill="#4285f4"
       id="path1" />
    <path
       d="m 22,32 c 2.7,0 4.9636,-0.8955 6.6181,-2.4227 l -3.2318,-2.5091 c -0.8954,0.6 -2.0409,0.9545 -3.3863,0.9545 -2.6046,0 -4.8091,-1.7591 -5.5955,-4.1227 h -3.3409 v 2.5909 C 14.7091,29.7591 18.0909,32 22,32 Z"
       fill="#34a853"
       id="path2" />
    <path
       d="m 16.4045,23.9 c -0.2,-0.6 -0.3136,-1.2409 -0.3136,-1.9 0,-0.6591 0.1136,-1.3 0.3136,-1.9 V 17.5091 H 13.0636 C 12.3864,18.8591 12,20.3864 12,22 c 0,1.6136 0.3864,3.1409 1.0636,4.4909 z"
       fill="#fbbc04"
       id="path3" />
    <path
       d="m 22,15.9773 c 1.4681,0 2.7863,0.5045 3.8227,1.4954 l 2.8682,-2.8682 C 26.9591,12.9909 24.6954,12 22,12 c -3.9091,0 -7.2909,2.2409 -8.9364,5.5091 L 16.4045,20.1 C 17.1909,17.7364 19.3954,15.9773 22,15.9773 Z"
       fill="#e94235"
       id="path4" />
  </g>
  <defs
     id="defs5">
    <clipPath
       id="clip0_710_6226">
      <rect
         width="20"
         height="20"
         fill="white"
         transform="translate(12 12)"
         id="rect5" />
    </clipPath>
  </defs>
</svg>
